<svg width="111.75" height="43.5" viewBox="0 0 149 58" fill="none" xmlns="http://www.w3.org/2000/svg">
<path id="Union" fill-rule="evenodd" clip-rule="evenodd" d="M57.6403 41.6321C57.0451 40.3558 54.6061 40.3558 54.0109 41.6321C49.5025 51.2998 39.6965 58 28.3256 58C12.6818 58 0 45.3182 0 29.6744C0 14.0306 12.6818 1.34881 28.3256 1.34881C39.4516 1.34881 49.0794 7.76353 53.7123 17.0963C54.3392 18.3592 56.7882 18.2985 57.3522 17.0062C61.7207 6.99635 71.7061 0 83.3256 0H120.674C136.318 0 149 12.6818 149 28.3256V29.6744C149 45.3182 136.318 58 120.674 58H83.3256C71.9547 58 62.1487 51.2998 57.6403 41.6321Z" fill="#D9D9D9"/>
</svg>
