<svg width="42.5" height="42.5" viewBox="0 0 57 57" fill="none" xmlns="http://www.w3.org/2000/svg">
<g id="Streamline Core Solid / interface-arrows-left-circle-2">
<path id="Vector" d="M29.4986 43.6871L17.3591 31.5476C16.9798 31.1714 16.6788 30.7238 16.4733 30.2307C16.2679 29.7376 16.1621 29.2087 16.1621 28.6745C16.1621 28.1403 16.2679 27.6114 16.4733 27.1183C16.6788 26.6252 16.9798 26.1777 17.3591 25.8015L29.4986 13.662C30.2606 12.9 31.294 12.4719 32.3716 12.4719C33.4492 12.4719 34.4827 12.9 35.2446 13.662C36.0066 14.4239 36.4347 15.4574 36.4347 16.535C36.4347 17.6126 36.0066 18.646 35.2446 19.408L26.666 27.9462C26.5681 28.0405 26.4903 28.1537 26.4371 28.2788C26.3839 28.404 26.3565 28.5385 26.3565 28.6745C26.3565 28.8105 26.3839 28.9451 26.4371 29.0702C26.4903 29.1954 26.5681 29.3085 26.666 29.4029L35.2446 37.941C36.0066 38.703 36.4347 39.7365 36.4347 40.8141C36.4347 41.8917 36.0066 42.9251 35.2446 43.6871C34.4827 44.4491 33.4492 44.8771 32.3716 44.8771C31.294 44.8771 30.2606 44.4491 29.4986 43.6871Z" fill="currentColor"/>
</g>
</svg>
