<svg width="26" height="26" viewBox="0 0 26 26" fill="currentColor" xmlns="http://www.w3.org/2000/svg">
<g>
<path id="Vector" d="M13 0C10.4289 0 7.91543 0.762437 5.77759 2.1909C3.63975 3.61935 1.97351 5.64968 0.989572 8.02512C0.00563279 10.4006 -0.251811 13.0144 0.249797 15.5362C0.751405 18.0579 1.98954 20.3743 3.80762 22.1924C5.6257 24.0105 7.94208 25.2486 10.4638 25.7502C12.9856 26.2518 15.5995 25.9944 17.9749 25.0104C20.3503 24.0265 22.3807 22.3603 23.8091 20.2224C25.2376 18.0846 26 15.5712 26 13C26 9.55219 24.6304 6.24558 22.1924 3.80761C19.7544 1.36964 16.4478 0 13 0ZM18.0886 18.0886C17.9382 18.2413 17.759 18.3626 17.5613 18.4454C17.3636 18.5282 17.1515 18.5708 16.9371 18.5708C16.7228 18.5708 16.5107 18.5282 16.313 18.4454C16.1153 18.3626 15.9361 18.2413 15.7857 18.0886L13.3343 15.6186C13.2424 15.5363 13.1233 15.4909 13 15.4909C12.8767 15.4909 12.7577 15.5363 12.6657 15.6186L10.2143 18.0886C9.90815 18.3925 9.49426 18.5631 9.06286 18.5631C8.63147 18.5631 8.21758 18.3925 7.91144 18.0886C7.75689 17.9396 7.63435 17.7606 7.55133 17.5626C7.46831 17.3646 7.42654 17.1518 7.42858 16.9371C7.42866 16.7228 7.47139 16.5106 7.55429 16.3129C7.63719 16.1152 7.75859 15.936 7.91144 15.7857L10.3814 13.3343C10.4637 13.2424 10.5091 13.1233 10.5091 13C10.5091 12.8767 10.4637 12.7576 10.3814 12.6657L7.91144 10.2143C7.64762 9.90124 7.51091 9.50059 7.52833 9.09158C7.54575 8.68257 7.71604 8.29499 8.00552 8.00551C8.295 7.71604 8.68257 7.54575 9.09158 7.52832C9.50059 7.5109 9.90125 7.64762 10.2143 7.91143L12.6657 10.3814C12.7577 10.4637 12.8767 10.5091 13 10.5091C13.1233 10.5091 13.2424 10.4637 13.3343 10.3814L15.7857 7.91143C15.9316 7.73836 16.1118 7.59747 16.3149 7.49769C16.5181 7.39791 16.7397 7.34141 16.9659 7.33178C17.192 7.32215 17.4177 7.35959 17.6286 7.44174C17.8395 7.52388 18.031 7.64893 18.191 7.80897C18.3511 7.96901 18.4761 8.16055 18.5583 8.37145C18.6404 8.58235 18.6779 8.80801 18.6682 9.03414C18.6586 9.26026 18.6021 9.48193 18.5023 9.68508C18.4025 9.88823 18.2616 10.0684 18.0886 10.2143L15.6186 12.6657C15.5364 12.7576 15.4909 12.8767 15.4909 13C15.4909 13.1233 15.5364 13.2424 15.6186 13.3343L18.0886 15.7857C18.2414 15.936 18.3628 16.1152 18.4457 16.3129C18.5286 16.5106 18.5714 16.7228 18.5714 16.9371C18.5735 17.1518 18.5317 17.3646 18.4487 17.5626C18.3657 17.7606 18.2431 17.9396 18.0886 18.0886Z" fill="currentColor"/>
</g>
</svg>
