<svg width="14" height="14" viewBox="0 0 14 14" fill="none" xmlns="http://www.w3.org/2000/svg">
<path d="M13.84 11.83L8.33996 0.829997C8.21505 0.581699 8.02361 0.372988 7.78699 0.227152C7.55038 0.0813157 7.2779 0.00408936 6.99996 0.00408936C6.72201 0.00408936 6.44953 0.0813157 6.21292 0.227152C5.9763 0.372988 5.78486 0.581699 5.65996 0.829997L0.159956 11.83C0.0437226 12.058 -0.0118158 12.3121 -0.00130666 12.5679C0.00920244 12.8236 0.0854047 13.0723 0.219956 13.29C0.356307 13.5065 0.545109 13.6851 0.768864 13.8092C0.992619 13.9333 1.24409 13.999 1.49996 14H12.5C12.7558 13.999 13.0073 13.9333 13.231 13.8092C13.4548 13.6851 13.6436 13.5065 13.78 13.29C13.9145 13.0723 13.9907 12.8236 14.0012 12.5679C14.0117 12.3121 13.9562 12.058 13.84 11.83ZM6.24996 5C6.24996 4.80108 6.32897 4.61032 6.46963 4.46967C6.61028 4.32901 6.80104 4.25 6.99996 4.25C7.19887 4.25 7.38963 4.32901 7.53029 4.46967C7.67094 4.61032 7.74996 4.80108 7.74996 5V8C7.74996 8.19891 7.67094 8.38967 7.53029 8.53033C7.38963 8.67098 7.19887 8.75 6.99996 8.75C6.80104 8.75 6.61028 8.67098 6.46963 8.53033C6.32897 8.38967 6.24996 8.19891 6.24996 8V5ZM6.99996 12C6.80217 12 6.60883 11.9413 6.44439 11.8315C6.27994 11.7216 6.15176 11.5654 6.07608 11.3827C6.00039 11.2 5.98059 10.9989 6.01917 10.8049C6.05776 10.6109 6.153 10.4327 6.29285 10.2929C6.4327 10.153 6.61088 10.0578 6.80487 10.0192C6.99885 9.98063 7.19991 10.0004 7.38264 10.0761C7.56536 10.1518 7.72154 10.28 7.83143 10.4444C7.94131 10.6089 7.99996 10.8022 7.99996 11C7.99996 11.2652 7.8946 11.5196 7.70706 11.7071C7.51953 11.8946 7.26517 12 6.99996 12Z" fill="currentColor"/>
</svg>
