 <svg width="21" height="22" viewBox="0 0 21 22" fill="currentColor" xmlns="http://www.w3.org/2000/svg">
    <g id="Streamline Core Solid / computer-keyboard" clip-path="url(#clip0_3649_10912)">
      <path id="Vector" d="M18.375 8H7.875C7.77554 8 7.68016 7.96049 7.60983 7.89017C7.53951 7.81984 7.5 7.72446 7.5 7.625C7.5 7.12772 7.69754 6.65081 8.04918 6.29917C8.40081 5.94754 8.87772 5.75 9.375 5.75H13.125C14.219 5.75 15.2682 5.3154 16.0418 4.54182C16.8154 3.76823 17.25 2.71902 17.25 1.625C17.25 1.32663 17.1315 1.04048 16.9205 0.829505C16.7095 0.618526 16.4234 0.5 16.125 0.5C15.8266 0.5 15.5405 0.618526 15.3295 0.829505C15.1185 1.04048 15 1.32663 15 1.625C15 2.12228 14.8025 2.59919 14.4508 2.95083C14.0992 3.30246 13.6223 3.5 13.125 3.5H9.375C8.28098 3.5 7.23177 3.9346 6.45818 4.70818C5.6846 5.48177 5.25 6.53098 5.25 7.625C5.25 7.72446 5.21049 7.81984 5.14016 7.89017C5.06984 7.96049 4.97446 8 4.875 8H2.625C1.93002 8.00394 1.26463 8.28176 0.773196 8.7732C0.281764 9.26463 0.00393765 9.93002 0 10.625L0 18.875C0.00393765 19.57 0.281764 20.2354 0.773196 20.7268C1.26463 21.2182 1.93002 21.4961 2.625 21.5H18.375C19.07 21.4961 19.7354 21.2182 20.2268 20.7268C20.7182 20.2354 20.9961 19.57 21 18.875V10.625C20.9961 9.93002 20.7182 9.26463 20.2268 8.7732C19.7354 8.28176 19.07 8.00394 18.375 8ZM16.5 17.75H4.5C4.30109 17.75 4.11032 17.671 3.96967 17.5303C3.82902 17.3897 3.75 17.1989 3.75 17C3.75 16.8011 3.82902 16.6103 3.96967 16.4697C4.11032 16.329 4.30109 16.25 4.5 16.25H16.5C16.6989 16.25 16.8897 16.329 17.0303 16.4697C17.171 16.6103 17.25 16.8011 17.25 17C17.25 17.1989 17.171 17.3897 17.0303 17.5303C16.8897 17.671 16.6989 17.75 16.5 17.75ZM16.5 13.25H4.5C4.30109 13.25 4.11032 13.171 3.96967 13.0303C3.82902 12.8897 3.75 12.6989 3.75 12.5C3.75 12.3011 3.82902 12.1103 3.96967 11.9697C4.11032 11.829 4.30109 11.75 4.5 11.75H16.5C16.6989 11.75 16.8897 11.829 17.0303 11.9697C17.171 12.1103 17.25 12.3011 17.25 12.5C17.25 12.6989 17.171 12.8897 17.0303 13.0303C16.8897 13.171 16.6989 13.25 16.5 13.25Z" fill="currentColor"/>
    </g>
    <defs>
      <clipPath id="clip0_3649_10912">
        <rect width="21" height="21" fill="none" transform="translate(0 0.5)"/>
      </clipPath>
    </defs>
  </svg>