<svg width="22" height="26" viewBox="0 0 22 26" fill="none" xmlns="http://www.w3.org/2000/svg">
<path d="M21.2942 20.1222C20.9037 21.0131 20.4414 21.8332 19.9059 22.5872C19.1759 23.615 18.5782 24.3265 18.1176 24.7215C17.4035 25.37 16.6384 25.7022 15.8192 25.7211C15.2311 25.7211 14.5218 25.5558 13.6962 25.2205C12.8678 24.8868 12.1066 24.7215 11.4105 24.7215C10.6805 24.7215 9.89764 24.8868 9.06022 25.2205C8.22152 25.5558 7.54588 25.7305 7.0293 25.7478C6.24368 25.7809 5.46061 25.4393 4.67898 24.7215C4.18009 24.2918 3.55609 23.5552 2.80856 22.5116C2.00653 21.3972 1.34714 20.1049 0.830568 18.6316C0.277334 17.0403 0 15.4993 0 14.0075C0 12.2985 0.373923 10.8246 1.12288 9.58949C1.7115 8.59738 2.49457 7.81477 3.47464 7.24025C4.45472 6.66573 5.51369 6.37296 6.6541 6.35423C7.27811 6.35423 8.0964 6.54485 9.11329 6.91947C10.1273 7.29534 10.7784 7.48596 11.0639 7.48596C11.2773 7.48596 12.0006 7.26308 13.2268 6.81873C14.3863 6.40665 15.3649 6.23602 16.1667 6.30324C18.3391 6.47638 19.9712 7.3221 21.0567 8.84576C19.1137 10.0083 18.1526 11.6367 18.1718 13.7256C18.1893 15.3526 18.787 16.7066 19.9617 17.7817C20.494 18.2806 21.0885 18.6663 21.75 18.9401C21.6066 19.351 21.4551 19.7445 21.2942 20.1222ZM16.3117 0.760145C16.3117 2.03544 15.8399 3.22617 14.8995 4.3283C13.7647 5.63852 12.3921 6.39563 10.9035 6.27616C10.8846 6.12317 10.8736 5.96214 10.8736 5.79294C10.8736 4.56866 11.4133 3.25844 12.3716 2.18716C12.8501 1.64475 13.4587 1.19374 14.1966 0.833966C14.933 0.479558 15.6295 0.283563 16.2846 0.25C16.3037 0.420487 16.3117 0.590984 16.3117 0.760129V0.760145Z" fill="currentColor"/>
</svg>
