<svg width="22" height="22" viewBox="0 0 22 22" fill="none" xmlns="http://www.w3.org/2000/svg">
    <path id="Vector" d="M21.5443 21.5443C21.6916 21.3982 21.8085 21.2244 21.8883 21.0329C21.968 20.8414 22.0091 20.636 22.0091 20.4286C22.0091 20.2211 21.968 20.0157 21.8883 19.8242C21.8085 19.6328 21.6916 19.4589 21.5443 19.3129L17.2857 15.1172C17.2281 15.0491 17.1965 14.9628 17.1965 14.8736C17.1965 14.7844 17.2281 14.6981 17.2857 14.63C18.5761 12.6813 19.0967 10.3227 18.7466 8.01188C18.3964 5.70102 17.2005 3.60259 15.3907 2.12362C13.5809 0.644656 11.2863 -0.109409 8.952 0.00770158C6.6177 0.124812 4.4101 1.10475 2.75742 2.75742C1.10475 4.4101 0.124812 6.6177 0.00770158 8.952C-0.109409 11.2863 0.644656 13.5809 2.12362 15.3907C3.60259 17.2005 5.70102 18.3964 8.01188 18.7466C10.3227 19.0967 12.6813 18.5761 14.63 17.2857C14.6981 17.2281 14.7844 17.1965 14.8736 17.1965C14.9628 17.1965 15.0491 17.2281 15.1172 17.2857L19.3129 21.4814C19.4548 21.6329 19.6253 21.7548 19.8145 21.84C20.0038 21.9252 20.208 21.9721 20.4155 21.978C20.623 21.9838 20.8295 21.9485 21.0233 21.8741C21.217 21.7996 21.3941 21.6875 21.5443 21.5443V21.5443ZM3.14286 9.42858C3.14286 8.18538 3.51152 6.9701 4.2022 5.93642C4.89288 4.90274 5.87458 4.09709 7.02314 3.62134C8.17171 3.14559 9.43555 3.02111 10.6549 3.26364C11.8742 3.50618 12.9942 4.10483 13.8733 4.98391C14.7523 5.86298 15.351 6.98299 15.5935 8.2023C15.8361 9.42161 15.7116 10.6855 15.2358 11.834C14.7601 12.9826 13.9544 13.9643 12.9207 14.655C11.8871 15.3456 10.6718 15.7143 9.42858 15.7143C7.7615 15.7143 6.16271 15.0521 4.98391 13.8733C3.80511 12.6945 3.14286 11.0957 3.14286 9.42858V9.42858Z" fill="currentColor"/>
</svg>
