<svg width="28" height="28" viewBox="0 0 28 28" fill="none" xmlns="http://www.w3.org/2000/svg">
<g>
<path id="Vector" d="M28.0004 18.98V2C28.0004 1.46957 27.7897 0.960859 27.4146 0.585786C27.0395 0.210714 26.5308 0 26.0004 0L9.02037 0C8.48994 0 7.98123 0.210714 7.60616 0.585786C7.23108 0.960859 7.02037 1.46957 7.02037 2C7.02037 2.53043 7.23108 3.03914 7.60616 3.41421C7.98123 3.78929 8.48994 4 9.02037 4H20.0004C20.098 3.99966 20.1935 4.02788 20.2752 4.08119C20.357 4.1345 20.4213 4.21056 20.4604 4.3C20.4999 4.39297 20.5115 4.49544 20.4937 4.59489C20.476 4.69434 20.4296 4.78646 20.3604 4.86L0.580371 24.58C0.203763 24.9566 -0.00781251 25.4674 -0.0078125 26C-0.00781249 26.5326 0.203763 27.0434 0.580371 27.42C0.956978 27.7966 1.46777 28.0082 2.00037 28.0082C2.53297 28.0082 3.04376 27.7966 3.42037 27.42L23.1404 7.68C23.224 7.62657 23.3211 7.59818 23.4204 7.59818C23.5196 7.59818 23.6168 7.62657 23.7004 7.68C23.7714 7.70703 23.8353 7.7499 23.8873 7.80535C23.9393 7.8608 23.978 7.92737 24.0004 8V18.98C24.0004 19.5104 24.2111 20.0191 24.5862 20.3942C24.9612 20.7693 25.4699 20.98 26.0004 20.98C26.5308 20.98 27.0395 20.7693 27.4146 20.3942C27.7897 20.0191 28.0004 19.5104 28.0004 18.98Z" fill="currentColor"/>
</g>
</svg>
